<?xml version="1.0" encoding="UTF-8" standalone="no"?>
<!DOCTYPE svg PUBLIC "-//W3C//DTD SVG 1.1//EN"
 "http://www.w3.org/Graphics/SVG/1.1/DTD/svg11.dtd">
<!-- Generated by graphviz version 2.38.0 (20140413.2041)
 -->
<!-- Title: snakemake_dag Pages: 1 -->
<svg width="1304pt" height="1052pt"
 viewBox="0.00 0.00 1303.50 1052.00" xmlns="http://www.w3.org/2000/svg" xmlns:xlink="http://www.w3.org/1999/xlink">
<g id="graph0" class="graph" transform="scale(1 1) rotate(0) translate(4 1048)">
<title>snakemake_dag</title>
<polygon fill="white" stroke="none" points="-4,4 -4,-1048 1299.5,-1048 1299.5,4 -4,4"/>
<!-- 0 -->
<g id="node1" class="node"><title>0</title>
<path fill="none" stroke="#70d856" stroke-width="2" d="M695,-36C695,-36 665,-36 665,-36 659,-36 653,-30 653,-24 653,-24 653,-12 653,-12 653,-6 659,-0 665,-0 665,-0 695,-0 695,-0 701,-0 707,-6 707,-12 707,-12 707,-24 707,-24 707,-30 701,-36 695,-36"/>
<text text-anchor="middle" x="680" y="-15.5" font-family="sans" font-size="10.00">all</text>
</g>
<!-- 1 -->
<g id="node2" class="node"><title>1</title>
<path fill="none" stroke="#d87556" stroke-width="2" d="M591,-108C591,-108 513,-108 513,-108 507,-108 501,-102 501,-96 501,-96 501,-84 501,-84 501,-78 507,-72 513,-72 513,-72 591,-72 591,-72 597,-72 603,-78 603,-84 603,-84 603,-96 603,-96 603,-102 597,-108 591,-108"/>
<text text-anchor="middle" x="552" y="-87.5" font-family="sans" font-size="10.00">g2t_k2_bcf_to_vcf</text>
</g>
<!-- 1&#45;&gt;0 -->
<g id="edge1" class="edge"><title>1&#45;&gt;0</title>
<path fill="none" stroke="grey" stroke-width="2" d="M583.312,-71.8761C601.63,-61.8584 624.832,-49.17 643.915,-38.7338"/>
<polygon fill="grey" stroke="grey" stroke-width="2" points="645.819,-41.6821 652.913,-33.8131 642.46,-35.5405 645.819,-41.6821"/>
</g>
<!-- 2 -->
<g id="node3" class="node"><title>2</title>
<path fill="none" stroke="#5682d8" stroke-width="2" d="M718,-108C718,-108 642,-108 642,-108 636,-108 630,-102 630,-96 630,-96 630,-84 630,-84 630,-78 636,-72 642,-72 642,-72 718,-72 718,-72 724,-72 730,-78 730,-84 730,-84 730,-96 730,-96 730,-102 724,-108 718,-108"/>
<text text-anchor="middle" x="680" y="-87.5" font-family="sans" font-size="10.00">t2t_k1_bcf_to_vcf</text>
</g>
<!-- 2&#45;&gt;0 -->
<g id="edge4" class="edge"><title>2&#45;&gt;0</title>
<path fill="none" stroke="grey" stroke-width="2" d="M680,-71.6966C680,-63.9827 680,-54.7125 680,-46.1124"/>
<polygon fill="grey" stroke="grey" stroke-width="2" points="683.5,-46.1043 680,-36.1043 676.5,-46.1044 683.5,-46.1043"/>
</g>
<!-- 3 -->
<g id="node4" class="node"><title>3</title>
<path fill="none" stroke="#56d8c9" stroke-width="2" d="M204,-180C204,-180 118,-180 118,-180 112,-180 106,-174 106,-168 106,-168 106,-156 106,-156 106,-150 112,-144 118,-144 118,-144 204,-144 204,-144 210,-144 216,-150 216,-156 216,-156 216,-168 216,-168 216,-174 210,-180 204,-180"/>
<text text-anchor="middle" x="161" y="-159.5" font-family="sans" font-size="10.00">t2t_k1_merge_bam</text>
</g>
<!-- 3&#45;&gt;0 -->
<g id="edge3" class="edge"><title>3&#45;&gt;0</title>
<path fill="none" stroke="grey" stroke-width="2" d="M216.051,-145.938C322.308,-116.866 553.113,-53.7166 643.064,-29.1059"/>
<polygon fill="grey" stroke="grey" stroke-width="2" points="644.099,-32.4514 652.821,-26.4364 642.251,-25.6995 644.099,-32.4514"/>
</g>
<!-- 4 -->
<g id="node5" class="node"><title>4</title>
<path fill="none" stroke="#56d8b9" stroke-width="2" d="M124,-900C124,-900 12,-900 12,-900 6,-900 0,-894 0,-888 0,-888 0,-876 0,-876 0,-870 6,-864 12,-864 12,-864 124,-864 124,-864 130,-864 136,-870 136,-876 136,-876 136,-888 136,-888 136,-894 130,-900 124,-900"/>
<text text-anchor="middle" x="68" y="-879.5" font-family="sans" font-size="10.00">kallisto_sort_pseudobam</text>
</g>
<!-- 4&#45;&gt;0 -->
<g id="edge2" class="edge"><title>4&#45;&gt;0</title>
<path fill="none" stroke="grey" stroke-width="2" d="M68.3951,-863.952C68.978,-837.294 70,-784.119 70,-739 70,-739 70,-739 70,-161 70,-42.8256 509.768,-22.9572 642.51,-19.6518"/>
<polygon fill="grey" stroke="grey" stroke-width="2" points="642.688,-23.1487 652.605,-19.4181 642.526,-16.1506 642.688,-23.1487"/>
</g>
<!-- 32 -->
<g id="node33" class="node"><title>32</title>
<path fill="none" stroke="#c6d856" stroke-width="2" d="M263.5,-828C263.5,-828 142.5,-828 142.5,-828 136.5,-828 130.5,-822 130.5,-816 130.5,-816 130.5,-804 130.5,-804 130.5,-798 136.5,-792 142.5,-792 142.5,-792 263.5,-792 263.5,-792 269.5,-792 275.5,-798 275.5,-804 275.5,-804 275.5,-816 275.5,-816 275.5,-822 269.5,-828 263.5,-828"/>
<text text-anchor="middle" x="203" y="-807.5" font-family="sans" font-size="10.00">get_normalized_tpm_table</text>
</g>
<!-- 4&#45;&gt;32 -->
<g id="edge51" class="edge"><title>4&#45;&gt;32</title>
<path fill="none" stroke="grey" stroke-width="2" d="M101.025,-863.876C119.085,-854.512 141.645,-842.814 160.951,-832.803"/>
<polygon fill="grey" stroke="grey" stroke-width="2" points="162.582,-835.9 169.848,-828.19 159.36,-829.686 162.582,-835.9"/>
</g>
<!-- 5 -->
<g id="node6" class="node"><title>5</title>
<path fill="none" stroke="#56d882" stroke-width="2" d="M878.5,-180C878.5,-180 789.5,-180 789.5,-180 783.5,-180 777.5,-174 777.5,-168 777.5,-168 777.5,-156 777.5,-156 777.5,-150 783.5,-144 789.5,-144 789.5,-144 878.5,-144 878.5,-144 884.5,-144 890.5,-150 890.5,-156 890.5,-156 890.5,-168 890.5,-168 890.5,-174 884.5,-180 878.5,-180"/>
<text text-anchor="middle" x="834" y="-159.5" font-family="sans" font-size="10.00">g2t_k2_merge_bam</text>
</g>
<!-- 5&#45;&gt;0 -->
<g id="edge6" class="edge"><title>5&#45;&gt;0</title>
<path fill="none" stroke="grey" stroke-width="2" d="M815.893,-143.824C796.856,-125.816 765.979,-96.7504 739,-72 728.592,-62.452 717.052,-52.0461 706.958,-43.0029"/>
<polygon fill="grey" stroke="grey" stroke-width="2" points="709.01,-40.1422 699.223,-36.085 704.344,-45.3601 709.01,-40.1422"/>
</g>
<!-- 6 -->
<g id="node7" class="node"><title>6</title>
<path fill="none" stroke="#d8cb56" stroke-width="2" d="M1283.5,-180C1283.5,-180 1194.5,-180 1194.5,-180 1188.5,-180 1182.5,-174 1182.5,-168 1182.5,-168 1182.5,-156 1182.5,-156 1182.5,-150 1188.5,-144 1194.5,-144 1194.5,-144 1283.5,-144 1283.5,-144 1289.5,-144 1295.5,-150 1295.5,-156 1295.5,-156 1295.5,-168 1295.5,-168 1295.5,-174 1289.5,-180 1283.5,-180"/>
<text text-anchor="middle" x="1239" y="-159.5" font-family="sans" font-size="10.00">g2t_k1_merge_bam</text>
</g>
<!-- 6&#45;&gt;0 -->
<g id="edge7" class="edge"><title>6&#45;&gt;0</title>
<path fill="none" stroke="grey" stroke-width="2" d="M1203.37,-143.984C1159.87,-123.883 1083.61,-90.8069 1015,-72 909.245,-43.0101 780.077,-28.1509 717.523,-22.2046"/>
<polygon fill="grey" stroke="grey" stroke-width="2" points="717.634,-18.6999 707.353,-21.2611 716.987,-25.67 717.634,-18.6999"/>
</g>
<!-- 7 -->
<g id="node8" class="node"><title>7</title>
<path fill="none" stroke="#d8ac56" stroke-width="2" d="M994,-108C994,-108 916,-108 916,-108 910,-108 904,-102 904,-96 904,-96 904,-84 904,-84 904,-78 910,-72 916,-72 916,-72 994,-72 994,-72 1000,-72 1006,-78 1006,-84 1006,-84 1006,-96 1006,-96 1006,-102 1000,-108 994,-108"/>
<text text-anchor="middle" x="955" y="-87.5" font-family="sans" font-size="10.00">g2t_k1_bcf_to_vcf</text>
</g>
<!-- 7&#45;&gt;0 -->
<g id="edge5" class="edge"><title>7&#45;&gt;0</title>
<path fill="none" stroke="grey" stroke-width="2" d="M903.919,-75.9976C849.539,-62.1554 764.832,-40.5935 716.698,-28.3412"/>
<polygon fill="grey" stroke="grey" stroke-width="2" points="717.56,-24.9491 707.005,-25.8741 715.833,-31.7328 717.56,-24.9491"/>
</g>
<!-- 8 -->
<g id="node9" class="node"><title>8</title>
<path fill="none" stroke="#d86656" stroke-width="2" d="M586,-180C586,-180 518,-180 518,-180 512,-180 506,-174 506,-168 506,-168 506,-156 506,-156 506,-150 512,-144 518,-144 518,-144 586,-144 586,-144 592,-144 598,-150 598,-156 598,-156 598,-168 598,-168 598,-174 592,-180 586,-180"/>
<text text-anchor="middle" x="552" y="-159.5" font-family="sans" font-size="10.00">g2t_k2_mpileup</text>
</g>
<!-- 8&#45;&gt;1 -->
<g id="edge8" class="edge"><title>8&#45;&gt;1</title>
<path fill="none" stroke="grey" stroke-width="2" d="M552,-143.697C552,-135.983 552,-126.712 552,-118.112"/>
<polygon fill="grey" stroke="grey" stroke-width="2" points="555.5,-118.104 552,-108.104 548.5,-118.104 555.5,-118.104"/>
</g>
<!-- 9 -->
<g id="node10" class="node"><title>9</title>
<path fill="none" stroke="#d8bc56" stroke-width="2" d="M367.5,-180C367.5,-180 246.5,-180 246.5,-180 240.5,-180 234.5,-174 234.5,-168 234.5,-168 234.5,-156 234.5,-156 234.5,-150 240.5,-144 246.5,-144 246.5,-144 367.5,-144 367.5,-144 373.5,-144 379.5,-150 379.5,-156 379.5,-156 379.5,-168 379.5,-168 379.5,-174 373.5,-180 367.5,-180"/>
<text text-anchor="middle" x="307" y="-159.5" font-family="sans" font-size="10.00">g2t_k2_make_samples_txt</text>
</g>
<!-- 9&#45;&gt;1 -->
<g id="edge9" class="edge"><title>9&#45;&gt;1</title>
<path fill="none" stroke="grey" stroke-width="2" d="M366.62,-143.966C404.327,-133.192 452.939,-119.303 490.922,-108.451"/>
<polygon fill="grey" stroke="grey" stroke-width="2" points="492.181,-111.731 500.835,-105.619 490.258,-105.001 492.181,-111.731"/>
</g>
<!-- 10 -->
<g id="node11" class="node"><title>10</title>
<path fill="none" stroke="#afd856" stroke-width="2" d="M747.5,-180C747.5,-180 628.5,-180 628.5,-180 622.5,-180 616.5,-174 616.5,-168 616.5,-168 616.5,-156 616.5,-156 616.5,-150 622.5,-144 628.5,-144 628.5,-144 747.5,-144 747.5,-144 753.5,-144 759.5,-150 759.5,-156 759.5,-156 759.5,-168 759.5,-168 759.5,-174 753.5,-180 747.5,-180"/>
<text text-anchor="middle" x="688" y="-159.5" font-family="sans" font-size="10.00">t2t_k1_make_samples_txt</text>
</g>
<!-- 10&#45;&gt;2 -->
<g id="edge11" class="edge"><title>10&#45;&gt;2</title>
<path fill="none" stroke="grey" stroke-width="2" d="M686.022,-143.697C685.141,-135.983 684.081,-126.712 683.099,-118.112"/>
<polygon fill="grey" stroke="grey" stroke-width="2" points="686.568,-117.642 681.955,-108.104 679.613,-118.437 686.568,-117.642"/>
</g>
<!-- 11 -->
<g id="node12" class="node"><title>11</title>
<path fill="none" stroke="#56d892" stroke-width="2" d="M476,-180C476,-180 410,-180 410,-180 404,-180 398,-174 398,-168 398,-168 398,-156 398,-156 398,-150 404,-144 410,-144 410,-144 476,-144 476,-144 482,-144 488,-150 488,-156 488,-156 488,-168 488,-168 488,-174 482,-180 476,-180"/>
<text text-anchor="middle" x="443" y="-159.5" font-family="sans" font-size="10.00">t2t_k1_mpileup</text>
</g>
<!-- 11&#45;&gt;2 -->
<g id="edge10" class="edge"><title>11&#45;&gt;2</title>
<path fill="none" stroke="grey" stroke-width="2" d="M488.057,-146.73C491.081,-145.798 494.083,-144.881 497,-144 537.952,-131.625 584.236,-118.226 620.011,-107.996"/>
<polygon fill="grey" stroke="grey" stroke-width="2" points="621.155,-111.31 629.81,-105.198 619.233,-104.579 621.155,-111.31"/>
</g>
<!-- 12 -->
<g id="node13" class="node"><title>12</title>
<path fill="none" stroke="#5673d8" stroke-width="2" d="M385.5,-252C385.5,-252 264.5,-252 264.5,-252 258.5,-252 252.5,-246 252.5,-240 252.5,-240 252.5,-228 252.5,-228 252.5,-222 258.5,-216 264.5,-216 264.5,-216 385.5,-216 385.5,-216 391.5,-216 397.5,-222 397.5,-228 397.5,-228 397.5,-240 397.5,-240 397.5,-246 391.5,-252 385.5,-252"/>
<text text-anchor="middle" x="325" y="-231.5" font-family="sans" font-size="10.00">t2t_k1_index_bam_sample</text>
</g>
<!-- 12&#45;&gt;3 -->
<g id="edge12" class="edge"><title>12&#45;&gt;3</title>
<path fill="none" stroke="grey" stroke-width="2" d="M284.881,-215.876C262.362,-206.264 234.082,-194.193 210.229,-184.013"/>
<polygon fill="grey" stroke="grey" stroke-width="2" points="211.56,-180.775 200.989,-180.068 208.812,-187.213 211.56,-180.775"/>
</g>
<!-- 12&#45;&gt;11 -->
<g id="edge24" class="edge"><title>12&#45;&gt;11</title>
<path fill="none" stroke="grey" stroke-width="2" d="M353.866,-215.876C369.295,-206.724 388.481,-195.342 405.097,-185.485"/>
<polygon fill="grey" stroke="grey" stroke-width="2" points="407.208,-188.302 414.023,-180.19 403.637,-182.282 407.208,-188.302"/>
</g>
<!-- 13 -->
<g id="node14" class="node"><title>13</title>
<path fill="none" stroke="#5663d8" stroke-width="2" d="M424,-324C424,-324 354,-324 354,-324 348,-324 342,-318 342,-312 342,-312 342,-300 342,-300 342,-294 348,-288 354,-288 354,-288 424,-288 424,-288 430,-288 436,-294 436,-300 436,-300 436,-312 436,-312 436,-318 430,-324 424,-324"/>
<text text-anchor="middle" x="389" y="-303.5" font-family="sans" font-size="10.00">t2t_k1_mapping</text>
</g>
<!-- 13&#45;&gt;3 -->
<g id="edge13" class="edge"><title>13&#45;&gt;3</title>
<path fill="none" stroke="grey" stroke-width="2" d="M341.959,-294.097C311.96,-285.705 273.192,-272.096 243,-252 217.252,-234.862 194.001,-208.003 178.889,-188.271"/>
<polygon fill="grey" stroke="grey" stroke-width="2" points="181.523,-185.949 172.733,-180.034 175.916,-190.139 181.523,-185.949"/>
</g>
<!-- 13&#45;&gt;11 -->
<g id="edge25" class="edge"><title>13&#45;&gt;11</title>
<path fill="none" stroke="grey" stroke-width="2" d="M395.514,-287.871C404.798,-263.457 421.923,-218.426 432.871,-189.635"/>
<polygon fill="grey" stroke="grey" stroke-width="2" points="436.18,-190.78 436.463,-180.189 429.637,-188.292 436.18,-190.78"/>
</g>
<!-- 13&#45;&gt;12 -->
<g id="edge27" class="edge"><title>13&#45;&gt;12</title>
<path fill="none" stroke="grey" stroke-width="2" d="M373.18,-287.697C365.43,-279.22 355.961,-268.864 347.476,-259.583"/>
<polygon fill="grey" stroke="grey" stroke-width="2" points="349.969,-257.123 340.638,-252.104 344.803,-261.846 349.969,-257.123"/>
</g>
<!-- 14 -->
<g id="node15" class="node"><title>14</title>
<path fill="none" stroke="#56d863" stroke-width="2" d="M202,-972C202,-972 126,-972 126,-972 120,-972 114,-966 114,-960 114,-960 114,-948 114,-948 114,-942 120,-936 126,-936 126,-936 202,-936 202,-936 208,-936 214,-942 214,-948 214,-948 214,-960 214,-960 214,-966 208,-972 202,-972"/>
<text text-anchor="middle" x="164" y="-951.5" font-family="sans" font-size="10.00">kallisto_quant_pe</text>
</g>
<!-- 14&#45;&gt;4 -->
<g id="edge14" class="edge"><title>14&#45;&gt;4</title>
<path fill="none" stroke="grey" stroke-width="2" d="M140.27,-935.697C128.063,-926.796 113.015,-915.823 99.8156,-906.199"/>
<polygon fill="grey" stroke="grey" stroke-width="2" points="101.6,-903.168 91.4574,-900.104 97.4753,-908.824 101.6,-903.168"/>
</g>
<!-- 14&#45;&gt;32 -->
<g id="edge52" class="edge"><title>14&#45;&gt;32</title>
<path fill="none" stroke="grey" stroke-width="2" d="M166.887,-935.747C170.096,-917.675 175.789,-888.559 183,-864 185.521,-855.413 188.777,-846.234 191.927,-837.968"/>
<polygon fill="grey" stroke="grey" stroke-width="2" points="195.271,-839.029 195.66,-828.441 188.753,-836.475 195.271,-839.029"/>
</g>
<!-- 15 -->
<g id="node16" class="node"><title>15</title>
<path fill="none" stroke="#bed856" stroke-width="2" d="M730,-324C730,-324 658,-324 658,-324 652,-324 646,-318 646,-312 646,-312 646,-300 646,-300 646,-294 652,-288 658,-288 658,-288 730,-288 730,-288 736,-288 742,-294 742,-300 742,-300 742,-312 742,-312 742,-318 736,-324 730,-324"/>
<text text-anchor="middle" x="694" y="-303.5" font-family="sans" font-size="10.00">g2t_k2_mapping</text>
</g>
<!-- 15&#45;&gt;5 -->
<g id="edge16" class="edge"><title>15&#45;&gt;5</title>
<path fill="none" stroke="grey" stroke-width="2" d="M715.617,-287.817C727.846,-277.781 743.205,-264.638 756,-252 776.788,-231.466 798.552,-206.279 813.792,-187.947"/>
<polygon fill="grey" stroke="grey" stroke-width="2" points="816.644,-189.989 820.307,-180.047 811.244,-185.535 816.644,-189.989"/>
</g>
<!-- 15&#45;&gt;8 -->
<g id="edge23" class="edge"><title>15&#45;&gt;8</title>
<path fill="none" stroke="grey" stroke-width="2" d="M672.037,-287.837C659.611,-277.807 644.005,-264.664 631,-252 609.949,-231.501 587.906,-206.31 572.47,-187.967"/>
<polygon fill="grey" stroke="grey" stroke-width="2" points="574.966,-185.495 565.87,-180.063 569.593,-189.982 574.966,-185.495"/>
</g>
<!-- 16 -->
<g id="node17" class="node"><title>16</title>
<path fill="none" stroke="#5692d8" stroke-width="2" d="M735.5,-252C735.5,-252 652.5,-252 652.5,-252 646.5,-252 640.5,-246 640.5,-240 640.5,-240 640.5,-228 640.5,-228 640.5,-222 646.5,-216 652.5,-216 652.5,-216 735.5,-216 735.5,-216 741.5,-216 747.5,-222 747.5,-228 747.5,-228 747.5,-240 747.5,-240 747.5,-246 741.5,-252 735.5,-252"/>
<text text-anchor="middle" x="694" y="-231.5" font-family="sans" font-size="10.00">g2t_k2_index_bam</text>
</g>
<!-- 15&#45;&gt;16 -->
<g id="edge34" class="edge"><title>15&#45;&gt;16</title>
<path fill="none" stroke="grey" stroke-width="2" d="M694,-287.697C694,-279.983 694,-270.712 694,-262.112"/>
<polygon fill="grey" stroke="grey" stroke-width="2" points="697.5,-262.104 694,-252.104 690.5,-262.104 697.5,-262.104"/>
</g>
<!-- 16&#45;&gt;5 -->
<g id="edge15" class="edge"><title>16&#45;&gt;5</title>
<path fill="none" stroke="grey" stroke-width="2" d="M728.248,-215.876C747.061,-206.469 770.585,-194.708 790.666,-184.667"/>
<polygon fill="grey" stroke="grey" stroke-width="2" points="792.241,-187.792 799.62,-180.19 789.111,-181.531 792.241,-187.792"/>
</g>
<!-- 16&#45;&gt;8 -->
<g id="edge22" class="edge"><title>16&#45;&gt;8</title>
<path fill="none" stroke="grey" stroke-width="2" d="M659.263,-215.876C640.181,-206.469 616.321,-194.708 595.953,-184.667"/>
<polygon fill="grey" stroke="grey" stroke-width="2" points="597.388,-181.472 586.871,-180.19 594.292,-187.751 597.388,-181.472"/>
</g>
<!-- 17 -->
<g id="node18" class="node"><title>17</title>
<path fill="none" stroke="#56a2d8" stroke-width="2" d="M1071,-324C1071,-324 999,-324 999,-324 993,-324 987,-318 987,-312 987,-312 987,-300 987,-300 987,-294 993,-288 999,-288 999,-288 1071,-288 1071,-288 1077,-288 1083,-294 1083,-300 1083,-300 1083,-312 1083,-312 1083,-318 1077,-324 1071,-324"/>
<text text-anchor="middle" x="1035" y="-303.5" font-family="sans" font-size="10.00">g2t_k1_mapping</text>
</g>
<!-- 17&#45;&gt;6 -->
<g id="edge18" class="edge"><title>17&#45;&gt;6</title>
<path fill="none" stroke="grey" stroke-width="2" d="M1083.29,-295.983C1114.06,-288.336 1153.38,-274.846 1182,-252 1202.83,-235.377 1218.37,-208.97 1227.92,-189.231"/>
<polygon fill="grey" stroke="grey" stroke-width="2" points="1231.1,-190.693 1232.12,-180.148 1224.75,-187.753 1231.1,-190.693"/>
</g>
<!-- 18 -->
<g id="node19" class="node"><title>18</title>
<path fill="none" stroke="#56d8a9" stroke-width="2" d="M1160.5,-252C1160.5,-252 1037.5,-252 1037.5,-252 1031.5,-252 1025.5,-246 1025.5,-240 1025.5,-240 1025.5,-228 1025.5,-228 1025.5,-222 1031.5,-216 1037.5,-216 1037.5,-216 1160.5,-216 1160.5,-216 1166.5,-216 1172.5,-222 1172.5,-228 1172.5,-228 1172.5,-240 1172.5,-240 1172.5,-246 1166.5,-252 1160.5,-252"/>
<text text-anchor="middle" x="1099" y="-231.5" font-family="sans" font-size="10.00">g2t_k1_index_bam_sample</text>
</g>
<!-- 17&#45;&gt;18 -->
<g id="edge38" class="edge"><title>17&#45;&gt;18</title>
<path fill="none" stroke="grey" stroke-width="2" d="M1050.82,-287.697C1058.57,-279.22 1068.04,-268.864 1076.52,-259.583"/>
<polygon fill="grey" stroke="grey" stroke-width="2" points="1079.2,-261.846 1083.36,-252.104 1074.03,-257.123 1079.2,-261.846"/>
</g>
<!-- 20 -->
<g id="node21" class="node"><title>20</title>
<path fill="none" stroke="#d88d56" stroke-width="2" d="M989,-180C989,-180 921,-180 921,-180 915,-180 909,-174 909,-168 909,-168 909,-156 909,-156 909,-150 915,-144 921,-144 921,-144 989,-144 989,-144 995,-144 1001,-150 1001,-156 1001,-156 1001,-168 1001,-168 1001,-174 995,-180 989,-180"/>
<text text-anchor="middle" x="955" y="-159.5" font-family="sans" font-size="10.00">g2t_k1_mpileup</text>
</g>
<!-- 17&#45;&gt;20 -->
<g id="edge40" class="edge"><title>17&#45;&gt;20</title>
<path fill="none" stroke="grey" stroke-width="2" d="M1025.35,-287.871C1011.54,-263.35 986.004,-218.032 969.794,-189.259"/>
<polygon fill="grey" stroke="grey" stroke-width="2" points="972.642,-187.184 964.684,-180.189 966.543,-190.62 972.642,-187.184"/>
</g>
<!-- 18&#45;&gt;6 -->
<g id="edge17" class="edge"><title>18&#45;&gt;6</title>
<path fill="none" stroke="grey" stroke-width="2" d="M1133.25,-215.876C1152.06,-206.469 1175.58,-194.708 1195.67,-184.667"/>
<polygon fill="grey" stroke="grey" stroke-width="2" points="1197.24,-187.792 1204.62,-180.19 1194.11,-181.531 1197.24,-187.792"/>
</g>
<!-- 18&#45;&gt;20 -->
<g id="edge41" class="edge"><title>18&#45;&gt;20</title>
<path fill="none" stroke="grey" stroke-width="2" d="M1063.77,-215.876C1044.42,-206.469 1020.23,-194.708 999.573,-184.667"/>
<polygon fill="grey" stroke="grey" stroke-width="2" points="1000.89,-181.414 990.362,-180.19 997.825,-187.71 1000.89,-181.414"/>
</g>
<!-- 19 -->
<g id="node20" class="node"><title>19</title>
<path fill="none" stroke="#59d856" stroke-width="2" d="M1152.5,-180C1152.5,-180 1031.5,-180 1031.5,-180 1025.5,-180 1019.5,-174 1019.5,-168 1019.5,-168 1019.5,-156 1019.5,-156 1019.5,-150 1025.5,-144 1031.5,-144 1031.5,-144 1152.5,-144 1152.5,-144 1158.5,-144 1164.5,-150 1164.5,-156 1164.5,-156 1164.5,-168 1164.5,-168 1164.5,-174 1158.5,-180 1152.5,-180"/>
<text text-anchor="middle" x="1092" y="-159.5" font-family="sans" font-size="10.00">g2t_k1_make_samples_txt</text>
</g>
<!-- 19&#45;&gt;7 -->
<g id="edge19" class="edge"><title>19&#45;&gt;7</title>
<path fill="none" stroke="grey" stroke-width="2" d="M1058.49,-143.876C1040.16,-134.512 1017.26,-122.814 997.672,-112.803"/>
<polygon fill="grey" stroke="grey" stroke-width="2" points="999.14,-109.623 988.643,-108.19 995.955,-115.857 999.14,-109.623"/>
</g>
<!-- 20&#45;&gt;7 -->
<g id="edge20" class="edge"><title>20&#45;&gt;7</title>
<path fill="none" stroke="grey" stroke-width="2" d="M955,-143.697C955,-135.983 955,-126.712 955,-118.112"/>
<polygon fill="grey" stroke="grey" stroke-width="2" points="958.5,-118.104 955,-108.104 951.5,-118.104 958.5,-118.104"/>
</g>
<!-- 21 -->
<g id="node22" class="node"><title>21</title>
<path fill="none" stroke="#56b9d8" stroke-width="2" d="M693,-468C693,-468 605,-468 605,-468 599,-468 593,-462 593,-456 593,-456 593,-444 593,-444 593,-438 599,-432 605,-432 605,-432 693,-432 693,-432 699,-432 705,-438 705,-444 705,-444 705,-456 705,-456 705,-462 699,-468 693,-468"/>
<text text-anchor="middle" x="649" y="-447.5" font-family="sans" font-size="10.00">get_monotigs_fasta</text>
</g>
<!-- 21&#45;&gt;8 -->
<g id="edge21" class="edge"><title>21&#45;&gt;8</title>
<path fill="none" stroke="grey" stroke-width="2" d="M592.916,-440.426C566.407,-433.252 537.103,-420.097 521,-396 478.135,-331.856 515.487,-235.382 537.954,-189.309"/>
<polygon fill="grey" stroke="grey" stroke-width="2" points="541.132,-190.781 542.488,-180.273 534.875,-187.641 541.132,-190.781"/>
</g>
<!-- 21&#45;&gt;11 -->
<g id="edge26" class="edge"><title>21&#45;&gt;11</title>
<path fill="none" stroke="grey" stroke-width="2" d="M592.991,-441.796C562.072,-434.978 525.322,-421.728 502,-396 448.96,-337.488 442.098,-238.145 442.124,-190.322"/>
<polygon fill="grey" stroke="grey" stroke-width="2" points="445.626,-190.167 442.237,-180.128 438.627,-190.089 445.626,-190.167"/>
</g>
<!-- 21&#45;&gt;20 -->
<g id="edge39" class="edge"><title>21&#45;&gt;20</title>
<path fill="none" stroke="grey" stroke-width="2" d="M705.109,-446.921C781.542,-442.802 912.41,-430.741 943,-396 993.873,-338.224 975.824,-237.814 963.149,-189.916"/>
<polygon fill="grey" stroke="grey" stroke-width="2" points="966.516,-188.962 960.475,-180.259 959.77,-190.83 966.516,-188.962"/>
</g>
<!-- 23 -->
<g id="node24" class="node"><title>23</title>
<path fill="none" stroke="#80d856" stroke-width="2" d="M801.5,-396C801.5,-396 542.5,-396 542.5,-396 536.5,-396 530.5,-390 530.5,-384 530.5,-384 530.5,-372 530.5,-372 530.5,-366 536.5,-360 542.5,-360 542.5,-360 801.5,-360 801.5,-360 807.5,-360 813.5,-366 813.5,-372 813.5,-372 813.5,-384 813.5,-384 813.5,-390 807.5,-396 801.5,-396"/>
<text text-anchor="middle" x="672" y="-375.5" font-family="sans" font-size="10.00">g2t_k2_make_bowtie2_index_assembly_exp_cod_mono</text>
</g>
<!-- 21&#45;&gt;23 -->
<g id="edge44" class="edge"><title>21&#45;&gt;23</title>
<path fill="none" stroke="grey" stroke-width="2" d="M654.685,-431.697C657.248,-423.898 660.333,-414.509 663.185,-405.829"/>
<polygon fill="grey" stroke="grey" stroke-width="2" points="666.584,-406.697 666.38,-396.104 659.933,-404.512 666.584,-406.697"/>
</g>
<!-- 22 -->
<g id="node23" class="node"><title>22</title>
<path fill="none" stroke="#8fd856" stroke-width="2" d="M464,-1044C464,-1044 388,-1044 388,-1044 382,-1044 376,-1038 376,-1032 376,-1032 376,-1020 376,-1020 376,-1014 382,-1008 388,-1008 388,-1008 464,-1008 464,-1008 470,-1008 476,-1014 476,-1020 476,-1020 476,-1032 476,-1032 476,-1038 470,-1044 464,-1044"/>
<text text-anchor="middle" x="426" y="-1023.5" font-family="sans" font-size="10.00">trimmomatic_rna</text>
</g>
<!-- 22&#45;&gt;13 -->
<g id="edge28" class="edge"><title>22&#45;&gt;13</title>
<path fill="none" stroke="grey" stroke-width="2" d="M426,-1007.95C426,-981.292 426,-928.115 426,-883 426,-883 426,-883 426,-449 426,-407.705 411.166,-361.774 400.283,-333.634"/>
<polygon fill="grey" stroke="grey" stroke-width="2" points="403.442,-332.106 396.488,-324.113 396.94,-334.698 403.442,-332.106"/>
</g>
<!-- 22&#45;&gt;14 -->
<g id="edge30" class="edge"><title>22&#45;&gt;14</title>
<path fill="none" stroke="grey" stroke-width="2" d="M375.794,-1011.59C332.466,-1000.01 269.791,-983.265 223.862,-970.994"/>
<polygon fill="grey" stroke="grey" stroke-width="2" points="224.601,-967.568 214.036,-968.368 222.794,-974.331 224.601,-967.568"/>
</g>
<!-- 22&#45;&gt;17 -->
<g id="edge36" class="edge"><title>22&#45;&gt;17</title>
<path fill="none" stroke="grey" stroke-width="2" d="M476.049,-1023.62C618.509,-1018.34 1016,-993.689 1016,-883 1016,-883 1016,-883 1016,-449 1016,-408.86 1023.55,-362.897 1029.13,-334.405"/>
<polygon fill="grey" stroke="grey" stroke-width="2" points="1032.61,-334.883 1031.16,-324.388 1025.74,-333.498 1032.61,-334.883"/>
</g>
<!-- 23&#45;&gt;13 -->
<g id="edge29" class="edge"><title>23&#45;&gt;13</title>
<path fill="none" stroke="grey" stroke-width="2" d="M603.132,-359.966C555.066,-348.077 491.66,-332.393 446.343,-321.184"/>
<polygon fill="grey" stroke="grey" stroke-width="2" points="446.933,-317.724 436.385,-318.721 445.252,-324.52 446.933,-317.724"/>
</g>
<!-- 23&#45;&gt;15 -->
<g id="edge33" class="edge"><title>23&#45;&gt;15</title>
<path fill="none" stroke="grey" stroke-width="2" d="M677.438,-359.697C679.889,-351.898 682.84,-342.509 685.568,-333.829"/>
<polygon fill="grey" stroke="grey" stroke-width="2" points="688.965,-334.694 688.624,-324.104 682.287,-332.595 688.965,-334.694"/>
</g>
<!-- 23&#45;&gt;17 -->
<g id="edge37" class="edge"><title>23&#45;&gt;17</title>
<path fill="none" stroke="grey" stroke-width="2" d="M760.336,-359.966C827.647,-346.985 918.413,-329.482 976.832,-318.217"/>
<polygon fill="grey" stroke="grey" stroke-width="2" points="977.836,-321.588 986.993,-316.258 976.511,-314.715 977.836,-321.588"/>
</g>
<!-- 24 -->
<g id="node25" class="node"><title>24</title>
<path fill="none" stroke="#d88556" stroke-width="2" d="M206,-1044C206,-1044 122,-1044 122,-1044 116,-1044 110,-1038 110,-1032 110,-1032 110,-1020 110,-1020 110,-1014 116,-1008 122,-1008 122,-1008 206,-1008 206,-1008 212,-1008 218,-1014 218,-1020 218,-1020 218,-1032 218,-1032 218,-1038 212,-1044 206,-1044"/>
<text text-anchor="middle" x="164" y="-1023.5" font-family="sans" font-size="10.00">build_kallisto_index</text>
</g>
<!-- 24&#45;&gt;14 -->
<g id="edge31" class="edge"><title>24&#45;&gt;14</title>
<path fill="none" stroke="grey" stroke-width="2" d="M164,-1007.7C164,-999.983 164,-990.712 164,-982.112"/>
<polygon fill="grey" stroke="grey" stroke-width="2" points="167.5,-982.104 164,-972.104 160.5,-982.104 167.5,-982.104"/>
</g>
<!-- 25 -->
<g id="node26" class="node"><title>25</title>
<path fill="none" stroke="#56c9d8" stroke-width="2" d="M922,-396C922,-396 844,-396 844,-396 838,-396 832,-390 832,-384 832,-384 832,-372 832,-372 832,-366 838,-360 844,-360 844,-360 922,-360 922,-360 928,-360 934,-366 934,-372 934,-372 934,-384 934,-384 934,-390 928,-396 922,-396"/>
<text text-anchor="middle" x="883" y="-375.5" font-family="sans" font-size="10.00">trimmomatic_dna</text>
</g>
<!-- 25&#45;&gt;15 -->
<g id="edge32" class="edge"><title>25&#45;&gt;15</title>
<path fill="none" stroke="grey" stroke-width="2" d="M836.765,-359.876C810.469,-350.137 777.356,-337.872 749.642,-327.608"/>
<polygon fill="grey" stroke="grey" stroke-width="2" points="750.678,-324.259 740.084,-324.068 748.246,-330.824 750.678,-324.259"/>
</g>
<!-- 25&#45;&gt;17 -->
<g id="edge35" class="edge"><title>25&#45;&gt;17</title>
<path fill="none" stroke="grey" stroke-width="2" d="M920.183,-359.876C940.87,-350.349 966.802,-338.407 988.785,-328.283"/>
<polygon fill="grey" stroke="grey" stroke-width="2" points="990.318,-331.43 997.937,-324.068 987.39,-325.072 990.318,-331.43"/>
</g>
<!-- 26 -->
<g id="node27" class="node"><title>26</title>
<path fill="none" stroke="#9fd856" stroke-width="2" d="M737,-540C737,-540 665,-540 665,-540 659,-540 653,-534 653,-528 653,-528 653,-516 653,-516 653,-510 659,-504 665,-504 665,-504 737,-504 737,-504 743,-504 749,-510 749,-516 749,-516 749,-528 749,-528 749,-534 743,-540 737,-540"/>
<text text-anchor="middle" x="701" y="-519.5" font-family="sans" font-size="10.00">get_monotigs_id</text>
</g>
<!-- 26&#45;&gt;21 -->
<g id="edge42" class="edge"><title>26&#45;&gt;21</title>
<path fill="none" stroke="grey" stroke-width="2" d="M688.146,-503.697C681.975,-495.389 674.463,-485.277 667.676,-476.141"/>
<polygon fill="grey" stroke="grey" stroke-width="2" points="670.479,-474.045 661.706,-468.104 664.86,-478.219 670.479,-474.045"/>
</g>
<!-- 27 -->
<g id="node28" class="node"><title>27</title>
<path fill="none" stroke="#d85656" stroke-width="2" d="M758,-612C758,-612 606,-612 606,-612 600,-612 594,-606 594,-600 594,-600 594,-588 594,-588 594,-582 600,-576 606,-576 606,-576 758,-576 758,-576 764,-576 770,-582 770,-588 770,-588 770,-600 770,-600 770,-606 764,-612 758,-612"/>
<text text-anchor="middle" x="682" y="-591.5" font-family="sans" font-size="10.00">get_expressed_and_coding_fasta</text>
</g>
<!-- 27&#45;&gt;21 -->
<g id="edge43" class="edge"><title>27&#45;&gt;21</title>
<path fill="none" stroke="grey" stroke-width="2" d="M665.537,-575.919C657.346,-566.218 648.296,-553.366 644,-540 637.547,-519.925 639.38,-496.006 642.506,-478.023"/>
<polygon fill="grey" stroke="grey" stroke-width="2" points="645.943,-478.683 644.443,-468.195 639.075,-477.329 645.943,-478.683"/>
</g>
<!-- 27&#45;&gt;26 -->
<g id="edge45" class="edge"><title>27&#45;&gt;26</title>
<path fill="none" stroke="grey" stroke-width="2" d="M686.697,-575.697C688.813,-567.898 691.362,-558.509 693.718,-549.829"/>
<polygon fill="grey" stroke="grey" stroke-width="2" points="697.116,-550.672 696.357,-540.104 690.36,-548.838 697.116,-550.672"/>
</g>
<!-- 28 -->
<g id="node29" class="node"><title>28</title>
<path fill="none" stroke="#d89c56" stroke-width="2" d="M608,-684C608,-684 466,-684 466,-684 460,-684 454,-678 454,-672 454,-672 454,-660 454,-660 454,-654 460,-648 466,-648 466,-648 608,-648 608,-648 614,-648 620,-654 620,-660 620,-660 620,-672 620,-672 620,-678 614,-684 608,-684"/>
<text text-anchor="middle" x="537" y="-663.5" font-family="sans" font-size="10.00">get_expressed_and_coding_ids</text>
</g>
<!-- 28&#45;&gt;27 -->
<g id="edge47" class="edge"><title>28&#45;&gt;27</title>
<path fill="none" stroke="grey" stroke-width="2" d="M572.471,-647.876C592.117,-638.392 616.722,-626.513 637.632,-616.419"/>
<polygon fill="grey" stroke="grey" stroke-width="2" points="639.16,-619.568 646.644,-612.068 636.117,-613.264 639.16,-619.568"/>
</g>
<!-- 29 -->
<g id="node30" class="node"><title>29</title>
<path fill="none" stroke="#56d8d8" stroke-width="2" d="M769.5,-684C769.5,-684 650.5,-684 650.5,-684 644.5,-684 638.5,-678 638.5,-672 638.5,-672 638.5,-660 638.5,-660 638.5,-654 644.5,-648 650.5,-648 650.5,-648 769.5,-648 769.5,-648 775.5,-648 781.5,-654 781.5,-660 781.5,-660 781.5,-672 781.5,-672 781.5,-678 775.5,-684 769.5,-684"/>
<text text-anchor="middle" x="710" y="-663.5" font-family="sans" font-size="10.00">index_assembly_samtools</text>
</g>
<!-- 29&#45;&gt;27 -->
<g id="edge46" class="edge"><title>29&#45;&gt;27</title>
<path fill="none" stroke="grey" stroke-width="2" d="M703.079,-647.697C699.925,-639.813 696.122,-630.304 692.619,-621.546"/>
<polygon fill="grey" stroke="grey" stroke-width="2" points="695.805,-620.089 688.842,-612.104 689.306,-622.689 695.805,-620.089"/>
</g>
<!-- 30 -->
<g id="node31" class="node"><title>30</title>
<path fill="none" stroke="#56d873" stroke-width="2" d="M299,-756C299,-756 171,-756 171,-756 165,-756 159,-750 159,-744 159,-744 159,-732 159,-732 159,-726 165,-720 171,-720 171,-720 299,-720 299,-720 305,-720 311,-726 311,-732 311,-732 311,-744 311,-744 311,-750 305,-756 299,-756"/>
<text text-anchor="middle" x="235" y="-735.5" font-family="sans" font-size="10.00">get_expressed_isoforms_ids</text>
</g>
<!-- 30&#45;&gt;28 -->
<g id="edge48" class="edge"><title>30&#45;&gt;28</title>
<path fill="none" stroke="grey" stroke-width="2" d="M308.491,-719.966C352.328,-709.805 408.122,-696.872 453.605,-686.33"/>
<polygon fill="grey" stroke="grey" stroke-width="2" points="454.49,-689.718 463.441,-684.05 452.909,-682.899 454.49,-689.718"/>
</g>
<!-- 31 -->
<g id="node32" class="node"><title>31</title>
<path fill="none" stroke="#68d856" stroke-width="2" d="M592,-756C592,-756 482,-756 482,-756 476,-756 470,-750 470,-744 470,-744 470,-732 470,-732 470,-726 476,-720 482,-720 482,-720 592,-720 592,-720 598,-720 604,-726 604,-732 604,-732 604,-744 604,-744 604,-750 598,-756 592,-756"/>
<text text-anchor="middle" x="537" y="-735.5" font-family="sans" font-size="10.00">get_coding_isoforms_ids</text>
</g>
<!-- 31&#45;&gt;28 -->
<g id="edge49" class="edge"><title>31&#45;&gt;28</title>
<path fill="none" stroke="grey" stroke-width="2" d="M537,-719.697C537,-711.983 537,-702.712 537,-694.112"/>
<polygon fill="grey" stroke="grey" stroke-width="2" points="540.5,-694.104 537,-684.104 533.5,-694.104 540.5,-694.104"/>
</g>
<!-- 32&#45;&gt;30 -->
<g id="edge50" class="edge"><title>32&#45;&gt;30</title>
<path fill="none" stroke="grey" stroke-width="2" d="M210.91,-791.697C214.553,-783.728 218.954,-774.1 222.994,-765.264"/>
<polygon fill="grey" stroke="grey" stroke-width="2" points="226.206,-766.654 227.181,-756.104 219.84,-763.744 226.206,-766.654"/>
</g>
<!-- 33 -->
<g id="node34" class="node"><title>33</title>
<path fill="none" stroke="#d6d856" stroke-width="2" d="M385.5,-900C385.5,-900 204.5,-900 204.5,-900 198.5,-900 192.5,-894 192.5,-888 192.5,-888 192.5,-876 192.5,-876 192.5,-870 198.5,-864 204.5,-864 204.5,-864 385.5,-864 385.5,-864 391.5,-864 397.5,-870 397.5,-876 397.5,-876 397.5,-888 397.5,-888 397.5,-894 391.5,-900 385.5,-900"/>
<text text-anchor="middle" x="295" y="-879.5" font-family="sans" font-size="10.00">create_experimental_design_for_sleuth</text>
</g>
<!-- 33&#45;&gt;32 -->
<g id="edge53" class="edge"><title>33&#45;&gt;32</title>
<path fill="none" stroke="grey" stroke-width="2" d="M272.258,-863.697C260.56,-854.796 246.139,-843.823 233.49,-834.199"/>
<polygon fill="grey" stroke="grey" stroke-width="2" points="235.558,-831.374 225.48,-828.104 231.319,-836.945 235.558,-831.374"/>
</g>
</g>
</svg>
